<?xml version="1.0" encoding="utf-8"?>
<!-- Generator: Adobe Illustrator 27.0.0, SVG Export Plug-In . SVG Version: 6.00 Build 0)  -->
<svg version="1.1" xmlns="http://www.w3.org/2000/svg" xmlns:xlink="http://www.w3.org/1999/xlink" x="0px" y="0px"
	 viewBox="0 0 953.5 282.5" style="enable-background:new 0 0 953.5 282.5;" xml:space="preserve">
<style type="text/css">
	.st0{fill:#FFFFFF;}
	.st1{fill:#DF041F;}
	.st2{opacity:0.2;}
	.st3{fill:#00B6ED;}
	.st4{fill:#022B52;}
	.st5{opacity:0.01;}
</style>
<g id="Int-Guides">
</g>
<g id="Int-logo">
	<g>
		<path class="st0" d="M768.99,207.43c-1.99,0-3.48-0.64-3.97-0.85c-6.87-3.11-13.03-6.28-18.49-9.51
			c-6.31-3.75-11.19-7.34-11.39-7.49c-12.35-8.85-21.98-18.87-28.54-29.72c-4.54-7.32-7.33-15.78-7.44-16.13
			c-7.6-22.31,3.35-46.45,24.98-54.85c11.75-4.55,25.17-3.35,36.31,3.17l0.21,0.13c0.34,0.21,1.8,1.14,3.71,2.56
			c9.24-13.13,24.2-21.4,40.03-21.4c5.68,0,11.25,1.04,16.56,3.1c11.97,4.62,21.41,13.81,26.57,25.86
			c5.17,12.07,5.39,25.54,0.6,37.94c0,0-1.2,3.1-1.62,4.09c-0.48,1.21-3.15,7.62-8.65,15.86c-13.13,18.59-34.9,34.12-64.84,46.34
			C771.76,207.12,770.35,207.43,768.99,207.43L768.99,207.43z"/>
		<g>
			<path class="st1" d="M740.2,183.59l1.88-10.18l3.31-17.09h-31.5C718.48,163.91,726.36,173.66,740.2,183.59z M817.88,85.25
				c-20.06-7.77-42.88,3-51.3,24.04l-2.34,12.06l-3.96,20.6h78.34c0.69-1.61,1.2-3.1,1.55-3.92
				C848.46,116.59,838.05,93.04,817.88,85.25z M756.15,100.27c-8.71-5.1-19.16-6.36-28.92-2.58c-17.07,6.63-26.14,26.15-19.96,44.27
				h40.89l5.2-27.17L756.15,100.27z M752.94,179.99l-2.07,10.6c5.12,3.03,10.94,6.04,17.47,8.99c0.18,0.08,0.39,0.17,0.65,0.17
				c0.18,0,0.48-0.1,0.57-0.16c34.99-14.25,52.28-30.65,61.21-43.29h-73.24L752.94,179.99z"/>
			<g class="st2">
				<path class="st3" d="M733.66,116.53c6.24-3.41,13.45-3.8,19.7-1.75l2.79-14.51c-8.71-5.1-19.16-6.36-28.92-2.58
					c-17.07,6.63-26.14,26.15-19.96,44.27h13.2C719.49,131.77,724.49,121.58,733.66,116.53z"/>
				<path class="st3" d="M725.76,156.32h-11.87c4.59,7.59,12.47,17.35,26.31,27.27l1.88-10.18
					C733.01,166.88,728.23,160.55,725.76,156.32z"/>
				<path class="st3" d="M775.4,188.53c-0.13,0.07-0.28,0.12-0.44,0.15c-0.15,0.01-0.29-0.03-0.43-0.08
					c-8.52-2.58-15.71-5.52-21.59-8.61l-2.07,10.6c5.12,3.03,10.94,6.04,17.47,8.99c0.18,0.08,0.39,0.17,0.65,0.17
					c0.18,0,0.48-0.1,0.57-0.16c34.99-14.25,52.28-30.65,61.21-43.29H813.1C806.68,165.76,795.45,177.08,775.4,188.53z"/>
				<path class="st3" d="M817.88,85.25c-20.06-7.77-42.88,3-51.3,24.04l-2.34,12.06l0,0c4.21-16.58,20.23-26.88,35.96-23.05
					c15.83,3.82,25.99,20.37,21.87,36.99c-0.3,1.46-0.74,3.67-1.72,6.66h18.26c0.69-1.61,1.2-3.1,1.55-3.92
					C848.46,116.59,838.05,93.04,817.88,85.25z"/>
			</g>
		</g>
	</g>
	<g>
		<path class="st4" d="M169.47,115.61l-24.4,56h-10.24l-24.48-56h11.28l18.64,43.2l18.8-43.2H169.47z"/>
		<path class="st4" d="M173.47,115.85c0-3.44,2.8-6,6.4-6s6.4,2.48,6.4,5.76c0,3.52-2.64,6.24-6.4,6.24
			C176.27,121.85,173.47,119.29,173.47,115.85z M174.83,128.89h10v42.72h-10V128.89z"/>
		<path class="st4" d="M200.99,170.81c-3.28-0.88-5.92-2.08-7.92-3.44l3.84-7.6c3.84,2.56,9.68,4.24,14.88,4.24
			c6,0,8.96-1.6,8.96-4.72c0-2.96-2.88-3.76-9.6-4.8c-3.52-0.56-6.4-1.12-8.56-1.84c-4.48-1.36-8.24-4.72-8.24-10.88
			c0-4.08,1.68-7.28,5.12-9.76c3.36-2.4,7.92-3.6,13.68-3.6c5.84,0,12.24,1.44,16,3.68l-3.84,7.6c-3.6-2.16-7.68-3.2-12.24-3.2
			c-5.84,0-8.96,1.92-8.96,4.8c0,3.2,3.2,4.08,10,5.28c3.44,0.56,6.24,1.12,8.4,1.84c4.4,1.36,8,4.48,8,10.56c0,4-1.76,7.2-5.2,9.6
			c-3.44,2.4-8.16,3.6-14.16,3.6C207.71,172.17,204.27,171.69,200.99,170.81z"/>
		<path class="st4" d="M237.79,115.85c0-3.44,2.8-6,6.4-6s6.4,2.48,6.4,5.76c0,3.52-2.64,6.24-6.4,6.24
			C240.59,121.85,237.79,119.29,237.79,115.85z M239.15,128.89h10v42.72h-10V128.89z"/>
		<path class="st4" d="M287.95,169.29c-2.32,1.92-5.84,2.88-9.6,2.88c-9.36,0-14.72-5.04-14.72-14.4v-20.56h-7.04v-8h7.04v-9.76h10
			v9.76h11.44v8h-11.44v20.32c0,4.16,2.08,6.4,5.92,6.4c2.24,0,4.08-0.56,5.6-1.76L287.95,169.29z"/>
		<path class="st4" d="M297.15,115.61h24.48c6,0,11.28,1.12,15.92,3.44c9.28,4.64,14.64,13.44,14.64,24.56
			c0,5.52-1.28,10.4-3.84,14.64c-5.12,8.48-14.8,13.36-26.72,13.36h-24.48V115.61z M321.15,162.81c12.48,0,20.56-7.6,20.56-19.2
			c0-11.6-8.08-19.2-20.56-19.2h-13.6v38.4H321.15z"/>
		<path class="st4" d="M402.27,153.45h-33.52c1.2,6.32,6.48,10.24,13.84,10.24c4.72,0,8.56-1.52,11.6-4.64l5.36,6.16
			c-3.84,4.56-9.84,6.96-17.2,6.96c-14.16,0-23.6-9.2-23.6-21.92c0-4.16,0.96-7.92,2.88-11.28c3.76-6.64,10.8-10.56,19.2-10.56
			c12.56,0,21.6,8.88,21.6,22.08C402.43,151.21,402.35,152.17,402.27,153.45z M368.67,146.81h24.24c-0.88-6.16-5.6-10.4-12.08-10.4
			C374.43,136.41,369.63,140.49,368.67,146.81z"/>
		<path class="st4" d="M454.11,147.13v24.48h-10v-23.2c0-7.44-3.68-11.28-10.16-11.28c-7.36,0-11.92,4.56-11.92,12.88v21.6h-10
			v-42.72h9.52v5.52c3.28-3.92,8.4-6,14.72-6C447.07,128.41,454.11,134.73,454.11,147.13z"/>
		<path class="st4" d="M538.27,147.13v24.48h-10v-23.2c0-7.44-3.44-11.28-9.6-11.28c-6.72,0-11.12,4.56-11.12,12.8v21.68h-10v-23.2
			c0-7.44-3.44-11.28-9.6-11.28c-6.8,0-11.12,4.48-11.12,12.8v21.68h-10v-42.72h9.52v5.44c3.2-3.84,8.16-5.92,14-5.92
			c6.4,0,11.52,2.4,14.4,7.12c3.52-4.48,9.28-7.12,16-7.12C531.55,128.41,538.27,134.65,538.27,147.13z"/>
		<path class="st4" d="M586.83,146.57v25.04h-9.44v-5.2c-2.48,3.76-7.04,5.76-13.44,5.76c-9.68,0-15.92-5.36-15.92-12.8
			c0-7.68,5.52-12.72,17.76-12.72h11.04v-0.64c0-6-3.6-9.28-10.64-9.28c-4.8,0-9.76,1.6-12.96,4.24l-3.92-7.28
			c4.48-3.44,11.04-5.28,18.08-5.28C579.95,128.41,586.83,134.41,586.83,146.57z M576.83,158.25v-4.96h-10.32
			c-5.76,0-8.64,1.92-8.64,5.68c0,3.6,3.04,5.92,8.16,5.92C571.07,164.89,575.23,162.49,576.83,158.25z"/>
		<path class="st4" d="M609.15,135.13c2.88-4.48,7.92-6.72,15.2-6.72v9.52c-0.88-0.16-1.6-0.24-2.32-0.24
			c-7.76,0-12.4,4.64-12.4,13.2v20.72h-10v-42.72h9.52V135.13z"/>
		<path class="st4" d="M650.27,153.29l-7.44,7.04v11.28h-10v-59.36h10v35.84l20.72-19.2h12l-17.84,17.92l19.52,24.8h-12.16
			L650.27,153.29z"/>
	</g>
	<g class="st5">
		<rect class="st4" width="953.75" height="282.25"/>
	</g>
</g>
</svg>
